<?xml version="1.0" encoding="UTF-8" standalone="no"?>
<!-- Created with Inkscape (http://www.inkscape.org/) -->

<svg
   xmlns:dc="http://purl.org/dc/elements/1.1/"
   xmlns:cc="http://creativecommons.org/ns#"
   xmlns:rdf="http://www.w3.org/1999/02/22-rdf-syntax-ns#"
   xmlns:svg="http://www.w3.org/2000/svg"
   xmlns="http://www.w3.org/2000/svg"
   xmlns:sodipodi="http://sodipodi.sourceforge.net/DTD/sodipodi-0.dtd"
   xmlns:inkscape="http://www.inkscape.org/namespaces/inkscape"
   width="210mm"
   height="297mm"
   viewBox="0 0 210 297"
   version="1.1"
   id="svg8"
   inkscape:version="0.92.4 (5da689c313, 2019-01-14)"
   sodipodi:docname="hand.svg">
  <defs
     id="defs2">
    <inkscape:path-effect
       effect="skeletal"
       id="path-effect991"
       is_visible="true"
       pattern="M 0,5 C 0,2.24 2.24,0 5,0 7.76,0 10,2.24 10,5 10,7.76 7.76,10 5,10 2.24,10 0,7.76 0,5 Z"
       copytype="single_stretched"
       prop_scale="0.26458333"
       scale_y_rel="false"
       spacing="0"
       normal_offset="0"
       tang_offset="0"
       prop_units="false"
       vertical_pattern="false"
       fuse_tolerance="0" />
    <inkscape:path-effect
       effect="skeletal"
       id="path-effect987"
       is_visible="true"
       pattern="M 0,5 C 0,2.24 2.24,0 5,0 7.76,0 10,2.24 10,5 10,7.76 7.76,10 5,10 2.24,10 0,7.76 0,5 Z"
       copytype="single_stretched"
       prop_scale="0.26458333"
       scale_y_rel="false"
       spacing="0"
       normal_offset="0"
       tang_offset="0"
       prop_units="false"
       vertical_pattern="false"
       fuse_tolerance="0" />
    <inkscape:path-effect
       effect="skeletal"
       id="path-effect983"
       is_visible="true"
       pattern="M 0,5 C 0,2.24 2.24,0 5,0 7.76,0 10,2.24 10,5 10,7.76 7.76,10 5,10 2.24,10 0,7.76 0,5 Z"
       copytype="single_stretched"
       prop_scale="0.26458333"
       scale_y_rel="false"
       spacing="0"
       normal_offset="0"
       tang_offset="0"
       prop_units="false"
       vertical_pattern="false"
       fuse_tolerance="0" />
    <inkscape:path-effect
       effect="skeletal"
       id="path-effect979"
       is_visible="true"
       pattern="M 0,5 C 0,2.24 2.24,0 5,0 7.76,0 10,2.24 10,5 10,7.76 7.76,10 5,10 2.24,10 0,7.76 0,5 Z"
       copytype="single_stretched"
       prop_scale="0.26458333"
       scale_y_rel="false"
       spacing="0"
       normal_offset="0"
       tang_offset="0"
       prop_units="false"
       vertical_pattern="false"
       fuse_tolerance="0" />
    <inkscape:path-effect
       effect="skeletal"
       id="path-effect975"
       is_visible="true"
       pattern="M 0,5 C 0,2.24 2.24,0 5,0 7.76,0 10,2.24 10,5 10,7.76 7.76,10 5,10 2.24,10 0,7.76 0,5 Z"
       copytype="single_stretched"
       prop_scale="0.26458333"
       scale_y_rel="false"
       spacing="0"
       normal_offset="0"
       tang_offset="0"
       prop_units="false"
       vertical_pattern="false"
       fuse_tolerance="0" />
    <inkscape:path-effect
       effect="skeletal"
       id="path-effect971"
       is_visible="true"
       pattern="M 0,5 C 0,2.24 2.24,0 5,0 7.76,0 10,2.24 10,5 10,7.76 7.76,10 5,10 2.24,10 0,7.76 0,5 Z"
       copytype="single_stretched"
       prop_scale="0.26458333"
       scale_y_rel="false"
       spacing="0"
       normal_offset="0"
       tang_offset="0"
       prop_units="false"
       vertical_pattern="false"
       fuse_tolerance="0" />
    <inkscape:path-effect
       effect="skeletal"
       id="path-effect951"
       is_visible="true"
       pattern="M 0,5 C 0,2.24 2.24,0 5,0 7.76,0 10,2.24 10,5 10,7.76 7.76,10 5,10 2.24,10 0,7.76 0,5 Z"
       copytype="single_stretched"
       prop_scale="0.26458333"
       scale_y_rel="false"
       spacing="0"
       normal_offset="0"
       tang_offset="0"
       prop_units="false"
       vertical_pattern="false"
       fuse_tolerance="0" />
    <inkscape:path-effect
       effect="skeletal"
       id="path-effect947"
       is_visible="true"
       pattern="M 0,5 C 0,2.24 2.24,0 5,0 7.76,0 10,2.24 10,5 10,7.76 7.76,10 5,10 2.24,10 0,7.76 0,5 Z"
       copytype="single_stretched"
       prop_scale="0.26458333"
       scale_y_rel="false"
       spacing="0"
       normal_offset="0"
       tang_offset="0"
       prop_units="false"
       vertical_pattern="false"
       fuse_tolerance="0" />
    <inkscape:path-effect
       effect="skeletal"
       id="path-effect943"
       is_visible="true"
       pattern="M 0,5 C 0,2.24 2.24,0 5,0 7.76,0 10,2.24 10,5 10,7.76 7.76,10 5,10 2.24,10 0,7.76 0,5 Z"
       copytype="single_stretched"
       prop_scale="0.26458333"
       scale_y_rel="false"
       spacing="0"
       normal_offset="0"
       tang_offset="0"
       prop_units="false"
       vertical_pattern="false"
       fuse_tolerance="0" />
    <inkscape:path-effect
       effect="skeletal"
       id="path-effect927"
       is_visible="true"
       pattern="M 0,5 C 0,2.24 2.24,0 5,0 7.76,0 10,2.24 10,5 10,7.76 7.76,10 5,10 2.24,10 0,7.76 0,5 Z"
       copytype="single_stretched"
       prop_scale="0.26458333"
       scale_y_rel="false"
       spacing="0"
       normal_offset="0"
       tang_offset="0"
       prop_units="false"
       vertical_pattern="false"
       fuse_tolerance="0" />
    <inkscape:path-effect
       effect="skeletal"
       id="path-effect923"
       is_visible="true"
       pattern="M 0,5 C 0,2.24 2.24,0 5,0 7.76,0 10,2.24 10,5 10,7.76 7.76,10 5,10 2.24,10 0,7.76 0,5 Z"
       copytype="single_stretched"
       prop_scale="0.26458333"
       scale_y_rel="false"
       spacing="0"
       normal_offset="0"
       tang_offset="0"
       prop_units="false"
       vertical_pattern="false"
       fuse_tolerance="0" />
    <inkscape:path-effect
       effect="skeletal"
       id="path-effect911"
       is_visible="true"
       pattern="M 0,5 C 0,2.24 2.24,0 5,0 7.76,0 10,2.24 10,5 10,7.76 7.76,10 5,10 2.24,10 0,7.76 0,5 Z"
       copytype="single_stretched"
       prop_scale="0.26458333"
       scale_y_rel="false"
       spacing="0"
       normal_offset="0"
       tang_offset="0"
       prop_units="false"
       vertical_pattern="false"
       fuse_tolerance="0" />
    <inkscape:path-effect
       effect="skeletal"
       id="path-effect907"
       is_visible="true"
       pattern="M 0,5 C 0,2.24 2.24,0 5,0 7.76,0 10,2.24 10,5 10,7.76 7.76,10 5,10 2.24,10 0,7.76 0,5 Z"
       copytype="single_stretched"
       prop_scale="0.26458333"
       scale_y_rel="false"
       spacing="0"
       normal_offset="0"
       tang_offset="0"
       prop_units="false"
       vertical_pattern="false"
       fuse_tolerance="0" />
    <inkscape:path-effect
       effect="skeletal"
       id="path-effect895"
       is_visible="true"
       pattern="M 0,5 C 0,2.24 2.24,0 5,0 7.76,0 10,2.24 10,5 10,7.76 7.76,10 5,10 2.24,10 0,7.76 0,5 Z"
       copytype="single_stretched"
       prop_scale="0.26458333"
       scale_y_rel="false"
       spacing="0"
       normal_offset="0"
       tang_offset="0"
       prop_units="false"
       vertical_pattern="false"
       fuse_tolerance="0" />
    <inkscape:path-effect
       effect="skeletal"
       id="path-effect891"
       is_visible="true"
       pattern="M 0,5 C 0,2.24 2.24,0 5,0 7.76,0 10,2.24 10,5 10,7.76 7.76,10 5,10 2.24,10 0,7.76 0,5 Z"
       copytype="single_stretched"
       prop_scale="0.26458333"
       scale_y_rel="false"
       spacing="0"
       normal_offset="0"
       tang_offset="0"
       prop_units="false"
       vertical_pattern="false"
       fuse_tolerance="0" />
    <inkscape:path-effect
       effect="skeletal"
       id="path-effect887"
       is_visible="true"
       pattern="M 0,5 C 0,2.24 2.24,0 5,0 7.76,0 10,2.24 10,5 10,7.76 7.76,10 5,10 2.24,10 0,7.76 0,5 Z"
       copytype="single_stretched"
       prop_scale="0.26458333"
       scale_y_rel="false"
       spacing="0"
       normal_offset="0"
       tang_offset="0"
       prop_units="false"
       vertical_pattern="false"
       fuse_tolerance="0" />
    <inkscape:path-effect
       effect="skeletal"
       id="path-effect883"
       is_visible="true"
       pattern="M 0,5 C 0,2.24 2.24,0 5,0 7.76,0 10,2.24 10,5 10,7.76 7.76,10 5,10 2.24,10 0,7.76 0,5 Z"
       copytype="single_stretched"
       prop_scale="0.26458333"
       scale_y_rel="false"
       spacing="0"
       normal_offset="0"
       tang_offset="0"
       prop_units="false"
       vertical_pattern="false"
       fuse_tolerance="0" />
    <inkscape:path-effect
       effect="skeletal"
       id="path-effect879"
       is_visible="true"
       pattern="M 0,5 C 0,2.24 2.24,0 5,0 7.76,0 10,2.24 10,5 10,7.76 7.76,10 5,10 2.24,10 0,7.76 0,5 Z"
       copytype="single_stretched"
       prop_scale="0.26458333"
       scale_y_rel="false"
       spacing="0"
       normal_offset="0"
       tang_offset="0"
       prop_units="false"
       vertical_pattern="false"
       fuse_tolerance="0" />
    <inkscape:path-effect
       effect="skeletal"
       id="path-effect875"
       is_visible="true"
       pattern="M 0,5 C 0,2.24 2.24,0 5,0 7.76,0 10,2.24 10,5 10,7.76 7.76,10 5,10 2.24,10 0,7.76 0,5 Z"
       copytype="single_stretched"
       prop_scale="0.26458333"
       scale_y_rel="false"
       spacing="0"
       normal_offset="0"
       tang_offset="0"
       prop_units="false"
       vertical_pattern="false"
       fuse_tolerance="0" />
    <inkscape:path-effect
       effect="skeletal"
       id="path-effect871"
       is_visible="true"
       pattern="M 0,5 C 0,2.24 2.24,0 5,0 7.76,0 10,2.24 10,5 10,7.76 7.76,10 5,10 2.24,10 0,7.76 0,5 Z"
       copytype="single_stretched"
       prop_scale="0.26458333"
       scale_y_rel="false"
       spacing="0"
       normal_offset="0"
       tang_offset="0"
       prop_units="false"
       vertical_pattern="false"
       fuse_tolerance="0" />
    <inkscape:path-effect
       effect="skeletal"
       id="path-effect849"
       is_visible="true"
       pattern="M 0,5 C 0,2.24 2.24,0 5,0 7.76,0 10,2.24 10,5 10,7.76 7.76,10 5,10 2.24,10 0,7.76 0,5 Z"
       copytype="single_stretched"
       prop_scale="0.26458333"
       scale_y_rel="false"
       spacing="0"
       normal_offset="0"
       tang_offset="0"
       prop_units="false"
       vertical_pattern="false"
       fuse_tolerance="0" />
    <inkscape:path-effect
       effect="skeletal"
       id="path-effect845"
       is_visible="true"
       pattern="M 0,5 C 0,2.24 2.24,0 5,0 7.76,0 10,2.24 10,5 10,7.76 7.76,10 5,10 2.24,10 0,7.76 0,5 Z"
       copytype="single_stretched"
       prop_scale="0.26458333"
       scale_y_rel="false"
       spacing="0"
       normal_offset="0"
       tang_offset="0"
       prop_units="false"
       vertical_pattern="false"
       fuse_tolerance="0" />
    <inkscape:path-effect
       effect="skeletal"
       id="path-effect883-4"
       is_visible="true"
       pattern="M 0,5 C 0,2.24 2.24,0 5,0 7.76,0 10,2.24 10,5 10,7.76 7.76,10 5,10 2.24,10 0,7.76 0,5 Z"
       copytype="single_stretched"
       prop_scale="0.26458333"
       scale_y_rel="false"
       spacing="0"
       normal_offset="0"
       tang_offset="0"
       prop_units="false"
       vertical_pattern="false"
       fuse_tolerance="0" />
    <inkscape:path-effect
       effect="skeletal"
       id="path-effect887-8"
       is_visible="true"
       pattern="M 0,5 C 0,2.24 2.24,0 5,0 7.76,0 10,2.24 10,5 10,7.76 7.76,10 5,10 2.24,10 0,7.76 0,5 Z"
       copytype="single_stretched"
       prop_scale="0.26458333"
       scale_y_rel="false"
       spacing="0"
       normal_offset="0"
       tang_offset="0"
       prop_units="false"
       vertical_pattern="false"
       fuse_tolerance="0" />
    <inkscape:path-effect
       effect="skeletal"
       id="path-effect891-2"
       is_visible="true"
       pattern="M 0,5 C 0,2.24 2.24,0 5,0 7.76,0 10,2.24 10,5 10,7.76 7.76,10 5,10 2.24,10 0,7.76 0,5 Z"
       copytype="single_stretched"
       prop_scale="0.26458333"
       scale_y_rel="false"
       spacing="0"
       normal_offset="0"
       tang_offset="0"
       prop_units="false"
       vertical_pattern="false"
       fuse_tolerance="0" />
    <inkscape:path-effect
       effect="skeletal"
       id="path-effect895-5"
       is_visible="true"
       pattern="M 0,5 C 0,2.24 2.24,0 5,0 7.76,0 10,2.24 10,5 10,7.76 7.76,10 5,10 2.24,10 0,7.76 0,5 Z"
       copytype="single_stretched"
       prop_scale="0.26458333"
       scale_y_rel="false"
       spacing="0"
       normal_offset="0"
       tang_offset="0"
       prop_units="false"
       vertical_pattern="false"
       fuse_tolerance="0" />
    <inkscape:path-effect
       effect="skeletal"
       id="path-effect907-0"
       is_visible="true"
       pattern="M 0,5 C 0,2.24 2.24,0 5,0 7.76,0 10,2.24 10,5 10,7.76 7.76,10 5,10 2.24,10 0,7.76 0,5 Z"
       copytype="single_stretched"
       prop_scale="0.26458333"
       scale_y_rel="false"
       spacing="0"
       normal_offset="0"
       tang_offset="0"
       prop_units="false"
       vertical_pattern="false"
       fuse_tolerance="0" />
    <inkscape:path-effect
       effect="skeletal"
       id="path-effect911-1"
       is_visible="true"
       pattern="M 0,5 C 0,2.24 2.24,0 5,0 7.76,0 10,2.24 10,5 10,7.76 7.76,10 5,10 2.24,10 0,7.76 0,5 Z"
       copytype="single_stretched"
       prop_scale="0.26458333"
       scale_y_rel="false"
       spacing="0"
       normal_offset="0"
       tang_offset="0"
       prop_units="false"
       vertical_pattern="false"
       fuse_tolerance="0" />
    <inkscape:path-effect
       effect="skeletal"
       id="path-effect923-2"
       is_visible="true"
       pattern="M 0,5 C 0,2.24 2.24,0 5,0 7.76,0 10,2.24 10,5 10,7.76 7.76,10 5,10 2.24,10 0,7.76 0,5 Z"
       copytype="single_stretched"
       prop_scale="0.26458333"
       scale_y_rel="false"
       spacing="0"
       normal_offset="0"
       tang_offset="0"
       prop_units="false"
       vertical_pattern="false"
       fuse_tolerance="0" />
    <inkscape:path-effect
       effect="skeletal"
       id="path-effect927-1"
       is_visible="true"
       pattern="M 0,5 C 0,2.24 2.24,0 5,0 7.76,0 10,2.24 10,5 10,7.76 7.76,10 5,10 2.24,10 0,7.76 0,5 Z"
       copytype="single_stretched"
       prop_scale="0.26458333"
       scale_y_rel="false"
       spacing="0"
       normal_offset="0"
       tang_offset="0"
       prop_units="false"
       vertical_pattern="false"
       fuse_tolerance="0" />
    <inkscape:path-effect
       effect="skeletal"
       id="path-effect943-7"
       is_visible="true"
       pattern="M 0,5 C 0,2.24 2.24,0 5,0 7.76,0 10,2.24 10,5 10,7.76 7.76,10 5,10 2.24,10 0,7.76 0,5 Z"
       copytype="single_stretched"
       prop_scale="0.26458333"
       scale_y_rel="false"
       spacing="0"
       normal_offset="0"
       tang_offset="0"
       prop_units="false"
       vertical_pattern="false"
       fuse_tolerance="0" />
    <inkscape:path-effect
       effect="skeletal"
       id="path-effect947-6"
       is_visible="true"
       pattern="M 0,5 C 0,2.24 2.24,0 5,0 7.76,0 10,2.24 10,5 10,7.76 7.76,10 5,10 2.24,10 0,7.76 0,5 Z"
       copytype="single_stretched"
       prop_scale="0.26458333"
       scale_y_rel="false"
       spacing="0"
       normal_offset="0"
       tang_offset="0"
       prop_units="false"
       vertical_pattern="false"
       fuse_tolerance="0" />
    <inkscape:path-effect
       effect="skeletal"
       id="path-effect951-4"
       is_visible="true"
       pattern="M 0,5 C 0,2.24 2.24,0 5,0 7.76,0 10,2.24 10,5 10,7.76 7.76,10 5,10 2.24,10 0,7.76 0,5 Z"
       copytype="single_stretched"
       prop_scale="0.26458333"
       scale_y_rel="false"
       spacing="0"
       normal_offset="0"
       tang_offset="0"
       prop_units="false"
       vertical_pattern="false"
       fuse_tolerance="0" />
    <inkscape:path-effect
       effect="skeletal"
       id="path-effect975-9"
       is_visible="true"
       pattern="M 0,5 C 0,2.24 2.24,0 5,0 7.76,0 10,2.24 10,5 10,7.76 7.76,10 5,10 2.24,10 0,7.76 0,5 Z"
       copytype="single_stretched"
       prop_scale="0.26458333"
       scale_y_rel="false"
       spacing="0"
       normal_offset="0"
       tang_offset="0"
       prop_units="false"
       vertical_pattern="false"
       fuse_tolerance="0" />
    <inkscape:path-effect
       effect="skeletal"
       id="path-effect979-6"
       is_visible="true"
       pattern="M 0,5 C 0,2.24 2.24,0 5,0 7.76,0 10,2.24 10,5 10,7.76 7.76,10 5,10 2.24,10 0,7.76 0,5 Z"
       copytype="single_stretched"
       prop_scale="0.26458333"
       scale_y_rel="false"
       spacing="0"
       normal_offset="0"
       tang_offset="0"
       prop_units="false"
       vertical_pattern="false"
       fuse_tolerance="0" />
    <inkscape:path-effect
       effect="skeletal"
       id="path-effect983-2"
       is_visible="true"
       pattern="M 0,5 C 0,2.24 2.24,0 5,0 7.76,0 10,2.24 10,5 10,7.76 7.76,10 5,10 2.24,10 0,7.76 0,5 Z"
       copytype="single_stretched"
       prop_scale="0.26458333"
       scale_y_rel="false"
       spacing="0"
       normal_offset="0"
       tang_offset="0"
       prop_units="false"
       vertical_pattern="false"
       fuse_tolerance="0" />
    <inkscape:path-effect
       effect="skeletal"
       id="path-effect987-4"
       is_visible="true"
       pattern="M 0,5 C 0,2.24 2.24,0 5,0 7.76,0 10,2.24 10,5 10,7.76 7.76,10 5,10 2.24,10 0,7.76 0,5 Z"
       copytype="single_stretched"
       prop_scale="0.26458333"
       scale_y_rel="false"
       spacing="0"
       normal_offset="0"
       tang_offset="0"
       prop_units="false"
       vertical_pattern="false"
       fuse_tolerance="0" />
    <inkscape:path-effect
       effect="skeletal"
       id="path-effect991-2"
       is_visible="true"
       pattern="M 0,5 C 0,2.24 2.24,0 5,0 7.76,0 10,2.24 10,5 10,7.76 7.76,10 5,10 2.24,10 0,7.76 0,5 Z"
       copytype="single_stretched"
       prop_scale="0.26458333"
       scale_y_rel="false"
       spacing="0"
       normal_offset="0"
       tang_offset="0"
       prop_units="false"
       vertical_pattern="false"
       fuse_tolerance="0" />
  </defs>
  <sodipodi:namedview
     id="base"
     pagecolor="#ffffff"
     bordercolor="#666666"
     borderopacity="1.0"
     inkscape:pageopacity="0.0"
     inkscape:pageshadow="2"
     inkscape:zoom="0.175"
     inkscape:cx="-500.73502"
     inkscape:cy="-81.854742"
     inkscape:document-units="mm"
     inkscape:current-layer="layer1"
     showgrid="false"
     inkscape:snap-global="false"
     inkscape:window-width="1600"
     inkscape:window-height="847"
     inkscape:window-x="-8"
     inkscape:window-y="22"
     inkscape:window-maximized="1" />
  <metadata
     id="metadata5">
    <rdf:RDF>
      <cc:Work
         rdf:about="">
        <dc:format>image/svg+xml</dc:format>
        <dc:type
           rdf:resource="http://purl.org/dc/dcmitype/StillImage" />
        <dc:title></dc:title>
      </cc:Work>
    </rdf:RDF>
  </metadata>
  <g
     inkscape:label="Layer 1"
     inkscape:groupmode="layer"
     id="layer1">
    <g
       id="g1009"
       transform="matrix(0.40022572,0,0,0.39928818,120.4696,-93.036278)">
      <path
         transform="rotate(3.4317622,-121.79131,595.2959)"
         inkscape:original-d="m -145.33184,602.40475 c 15.95313,-7.32393 3.30707,-49.65652 17.00892,-56.50743 2.86087,-1.43044 7.05606,0.72009 9.82739,1.51191"
         inkscape:path-effect="#path-effect883"
         inkscape:connector-curvature="0"
         id="path881"
         d="m -145.33184,602.40475 c -0.11746,-0.25585 2.20452,-1.32412 4.11293,-4.66033 1.00454,-1.75273 1.73347,-3.80983 2.3386,-6.54682 1.16053,-5.28937 1.29367,-10.11599 1.58611,-17.28182 0.0572,-1.4854 0.10846,-3.00779 0.17514,-4.55888 0.20129,-4.68205 0.52474,-8.87529 1.38984,-13.0078 0.52143,-2.52307 1.25458,-4.82564 2.42887,-6.88453 1.14652,-2.02657 2.75429,-3.54425 4.56461,-4.3929 2.10372,-0.89222 4.2295,-0.36398 5.5324,0.0885 3.16071,1.03192 4.71447,2.22574 4.70781,2.24903 -0.0685,0.23978 -1.97795,-0.33758 -5.05243,-0.92958 -1.263,-0.21821 -3.15769,-0.51526 -4.36214,0.24332 -1.37418,0.74376 -2.55119,2.06088 -3.4563,3.79634 -0.94273,1.82315 -1.4935,3.8987 -1.93962,6.30541 -0.72535,3.97217 -0.96485,7.97625 -1.16551,12.64598 -0.0673,1.567 -0.12473,3.03544 -0.20057,4.56082 -0.33352,7.02436 -0.70408,12.32303 -2.18918,17.66906 -0.78263,2.83542 -1.80144,5.06906 -3.08518,6.86484 -2.65984,3.72097 -5.36273,3.88868 -5.38538,3.83933 z"
         style="fill:#000000;stroke:none;stroke-width:0.26458332px;stroke-linecap:butt;stroke-linejoin:miter;stroke-opacity:1" />
      <path
         transform="translate(0.56696429,0.1889881)"
         inkscape:original-d="m -127.94494,545.89732 c 7.75618,-10.18122 16.51061,-20.82302 28.537202,-26.83631 4.422373,-2.21118 9.567582,2.87022 14.174107,0.56697 3.789159,-1.8946 0.55403,-5.23118 -1.322916,-6.42562"
         inkscape:path-effect="#path-effect887"
         inkscape:connector-curvature="0"
         id="path885"
         d="m -127.94494,545.89732 c -0.25462,-0.19397 1.50146,-3.24819 4.97424,-7.82239 3.36923,-4.43781 8.75989,-10.79532 15.76121,-15.81114 2.37568,-1.70196 4.78518,-3.14581 7.231216,-4.34385 1.380391,-0.64838 2.838372,-0.77365 4.137133,-0.59689 1.394634,0.18396 2.677815,0.59865 3.773743,0.95345 1.275829,0.40062 2.322978,0.74681 3.399642,0.88581 0,0 2e-6,0 2e-6,0 1.135753,0.14457 2.178848,0.0417 3.030805,-0.34096 0.661687,-0.33892 1.180244,-0.6421 1.319936,-1.07623 0.191223,-0.3404 0.09439,-0.87535 -0.04743,-1.3151 -0.768704,-2.15973 -2.320178,-3.02642 -2.192112,-3.22766 -0.06433,0.10108 1.857924,-0.0457 3.380391,2.67284 0.33644,0.58345 0.576267,1.4193 0.337493,2.365 -0.336909,0.98936 -1.092505,1.75284 -1.991646,2.19441 -1.166432,0.62637 -2.56823,0.91544 -4.041562,0.80333 0,0 -3e-6,0 -3e-6,0 -1.327601,-0.0977 -2.554618,-0.40808 -3.840207,-0.7564 -1.127737,-0.29535 -2.308562,-0.63379 -3.397051,-0.72329 -0.961225,-0.072 -1.95793,0.0171 -2.728066,0.44383 -2.301218,1.1756 -4.573168,2.56537 -6.844398,4.19367 -6.60739,4.73697 -12.1964,10.84585 -15.83704,14.88115 -3.80562,4.21816 -6.1044,6.86565 -6.4263,6.62042 z"
         style="fill:#000000;stroke:none;stroke-width:0.26458332px;stroke-linecap:butt;stroke-linejoin:miter;stroke-opacity:1" />
      <path
         inkscape:original-d="m -96.572915,518.68302 c 5.557755,-12.93696 17.488669,-4.53567 18.331843,6.42559"
         inkscape:path-effect="#path-effect891"
         inkscape:connector-curvature="0"
         id="path889"
         d="m -96.572915,518.68302 c -0.209022,-0.0898 -0.193494,-0.97422 0.393758,-2.38093 0.548769,-1.31452 1.778757,-3.41835 4.210496,-4.69548 2.013662,-0.96122 4.58431,-1.01344 6.911485,0.13977 0.127895,0.0636 0.254607,0.12964 0.380104,0.19815 2.354726,1.28538 3.978194,3.25574 4.998692,5.09333 2.595027,4.60502 1.747317,8.0469 1.437308,8.07075 -0.512879,0.0394 -0.954045,-3.24714 -3.439703,-6.82433 -1.042933,-1.47869 -2.460658,-3.06696 -4.249337,-4.01575 -0.09633,-0.0511 -0.193252,-0.10009 -0.290763,-0.14695 -1.64815,-0.79445 -3.430147,-0.90221 -4.77538,-0.35257 -1.788333,0.62521 -3.144277,2.2647 -3.947416,3.25853 -0.876808,1.08498 -1.372708,1.76569 -1.629244,1.65548 z"
         style="fill:#000000;stroke:none;stroke-width:0.26458332px;stroke-linecap:butt;stroke-linejoin:miter;stroke-opacity:1" />
      <path
         inkscape:original-d="m -159.12797,603.1607 c 2.9983,-10.74569 7.70921,-53.48362 20.22172,-53.48362"
         inkscape:path-effect="#path-effect895"
         inkscape:connector-curvature="0"
         id="path893"
         d="m -159.12797,603.1607 c -0.23604,-0.0659 -0.005,-2.10665 0.46349,-5.53419 0.25775,-1.89279 0.67543,-4.78886 1.12232,-7.56304 0,0 0,0 0,0 0.73341,-4.55574 1.78437,-10.4154 3.24036,-16.28479 0.1435,-0.57848 0.2896,-1.15196 0.43846,-1.72068 1.70332,-6.54638 3.44131,-11.57422 6.03385,-16.02339 1.2903,-2.23273 2.61136,-3.86013 4.10326,-5.03945 2.85772,-2.28763 4.81999,-1.36272 4.81999,-1.31808 0,0.26677 -1.88069,0.39351 -3.8568,2.39669 -1.1941,1.22211 -2.15181,2.72665 -3.25342,4.93718 -2.21641,4.48969 -3.58684,9.10871 -5.29007,15.70956 -0.14372,0.56042 -0.28614,1.12524 -0.42761,1.69527 -1.3603,5.48114 -2.71286,11.86474 -3.64968,16.06184 0,0 0,10e-6 0,10e-6 -0.66892,2.99787 -1.21154,5.33255 -1.77457,7.45064 -0.89979,3.38708 -1.657,5.31965 -1.96958,5.23243 z"
         style="fill:#000000;stroke:none;stroke-width:0.26458332px;stroke-linecap:butt;stroke-linejoin:miter;stroke-opacity:1" />
      <path
         inkscape:original-d="m -146.46577,555.15774 c 1.41667,-2.77937 2.99102,-5.60409 4.34672,-8.31548 3.03947,-6.07894 5.11516,-14.43443 10.96131,-18.33185 4.69813,-3.13208 11.96702,-0.68849 14.74107,-6.2366 1.61742,-3.23484 -0.15946,-4.15774 -3.40178,-4.15774"
         inkscape:path-effect="#path-effect907"
         inkscape:connector-curvature="0"
         id="path905"
         d="m -146.46577,555.15774 c -0.45895,-0.23393 1.11657,-3.53637 3.45574,-8.76097 1.24018,-2.76854 2.37107,-6.28873 4.17092,-10.09941 0.97219,-2.1007 2.24969,-4.3606 4.01167,-6.30724 0.88206,-0.9745 1.85809,-1.84046 2.9422,-2.57097 2.85356,-1.78198 6.25865,-1.97729 8.61781,-2.29179 0,0 0,0 0,0 1.38139,-0.21574 2.5391,-0.43937 3.54067,-0.92758 1.12134,-0.52317 1.97959,-1.40624 2.5094,-2.32631 0.34489,-0.64323 0.60134,-1.13472 0.63819,-1.62851 0.0314,-0.31082 -0.0279,-0.61168 -0.18137,-0.78872 -0.95476,-1.43442 -3.05791,-1.098 -3.05791,-1.34017 0,0.59102 1.36164,-1.64376 3.98868,0.39144 0.46815,0.43288 0.77717,1.06199 0.78915,1.76646 0.011,0.84763 -0.22451,1.65217 -0.57536,2.40018 -0.57201,1.2838 -1.60054,2.56403 -3.11644,3.42295 -1.28275,0.70872 -2.67318,1.0982 -4.13149,1.37178 0,0 -10e-6,0 -10e-6,0 -2.50788,0.52487 -5.66008,0.74416 -7.56632,2.13279 -0.88657,0.58326 -1.69281,1.30599 -2.44032,2.14594 -1.48554,1.66926 -2.66943,3.72919 -3.67213,5.67156 -1.79841,3.55512 -3.1492,7.0844 -4.68538,9.86858 -2.80113,5.06096 -4.98844,7.99704 -5.2377,7.86999 z"
         style="fill:#000000;stroke:none;stroke-width:0.26458332px;stroke-linecap:butt;stroke-linejoin:miter;stroke-opacity:1" />
      <path
         inkscape:original-d="m -128.70089,527.1875 c 8.84617,-14.09658 13.12629,-15.50064 17.95387,0.18899"
         inkscape:path-effect="#path-effect911"
         inkscape:connector-curvature="0"
         id="path909"
         d="m -128.70089,527.1875 c -0.25862,-0.1623 0.93749,-4.33787 4.93946,-8.96992 0,0 0,0 0,0 0.954,-1.22179 2.44449,-2.73581 4.59453,-3.26924 0.28381,-0.0704 0.57641,-0.123 0.8778,-0.15579 1.06851,-0.036 2.03981,0.2943 2.8026,0.83721 0.99764,0.72122 1.68136,1.61798 2.16745,2.4418 3.08167,5.10675 2.69038,9.26852 2.57203,9.30493 -0.53109,0.16341 -1.63445,-3.81816 -4.62384,-7.95692 -0.48059,-0.64782 -0.9911,-1.28532 -1.57613,-1.6394 -0.38088,-0.23394 -0.82253,-0.3912 -1.19788,-0.34839 -0.14663,-0.008 -0.29335,0.003 -0.44083,0.0323 -1.07947,0.21391 -2.25524,1.45402 -3.33786,2.44568 0,0 -1e-5,0 -1e-5,0 -3.92429,3.97783 -6.2883,7.5846 -6.77732,7.27772 z"
         style="fill:#000000;stroke:none;stroke-width:0.26458332px;stroke-linecap:butt;stroke-linejoin:miter;stroke-opacity:1" />
      <path
         inkscape:original-d="m -126.95302,603.55815 c 19.18539,-8.9023 16.8894,-61.07742 36.081381,-59.60112"
         inkscape:path-effect="#path-effect923"
         inkscape:connector-curvature="0"
         id="path921"
         d="m -126.95302,603.55815 c -0.1332,-0.28707 2.69974,-1.6875 5.61823,-5.69728 1.57277,-2.16805 2.94147,-4.68944 4.38433,-8.047 0,0 0,0 0,0 2.33814,-5.45158 3.86783,-10.65674 6.00301,-17.78306 0.25713,-0.85821 0.51191,-1.70397 0.76961,-2.54696 2.31953,-7.65002 4.09174,-13.2588 7.36551,-18.61074 1.5786,-2.60291 3.289872,-4.49539 5.222599,-5.76203 4.178483,-2.70787 6.704092,-0.97195 6.7181,-1.15405 -0.02173,0.28245 -2.829116,-0.0391 -5.829254,2.38994 -1.603758,1.2782 -2.920954,3.04232 -4.302835,5.56993 -2.90965,5.3709 -4.28784,10.49757 -6.64804,18.33048 -0.29127,0.97477 -0.46755,1.56797 -0.75882,2.54274 -2.09165,6.99551 -3.89088,12.56798 -6.47964,17.96044 0,0 -1e-5,0 -1e-5,0 -1.6231,3.38715 -3.28908,6.01586 -5.13801,8.14992 -3.60924,4.18032 -6.83591,4.84919 -6.92478,4.65767 z"
         style="fill:#000000;stroke:none;stroke-width:0.26458332px;stroke-linecap:butt;stroke-linejoin:miter;stroke-opacity:1" />
      <path
         inkscape:original-d="m -99.691533,546.62974 c 2.628358,-12.25677 18.644074,-23.48732 28.86511,-28.59786 6.090616,-3.0453 13.149014,5.51945 19.109769,2.53908 6.780766,-3.3904 -2.361059,-7.63437 -5.34539,-8.55263"
         inkscape:path-effect="#path-effect927"
         inkscape:connector-curvature="0"
         id="path925"
         d="m -99.691533,546.62974 c -0.283,-0.0607 -0.129653,-4.00401 3.454376,-9.43767 1.790975,-2.72515 4.171582,-5.51376 7.345952,-8.42564 0,0 2e-6,0 2e-6,0 3.859795,-3.54602 8.507842,-7.00703 13.972114,-10.06494 1.167848,-0.65354 2.33721,-1.26861 3.504142,-1.84666 1.834288,-0.87201 3.822709,-0.94103 5.562585,-0.55346 1.894571,0.41216 3.611622,1.17486 5.110194,1.84291 1.694831,0.73874 3.114505,1.39861 4.617091,1.74101 0,0 2e-6,0 2e-6,0 1.45682,0.32085 2.851867,0.29797 3.948931,-0.23331 0.658915,-0.31998 1.209778,-0.61598 1.58319,-1.02053 0.232573,-0.26276 0.410568,-0.52294 0.417657,-0.74873 0.182122,-0.5513 -0.510969,-1.30837 -1.066084,-1.93328 -0.952304,-0.94151 -2.167605,-1.6916 -3.012749,-2.19995 0,0 -10e-7,0 -10e-7,0 -1.786311,-1.06657 -2.865748,-1.54321 -2.807916,-1.73116 0.0534,-0.17354 1.264467,-0.0555 3.287642,0.76276 0,0 2e-6,1e-5 2e-6,1e-5 0.962593,0.38587 2.318482,1.00901 3.560909,2.00465 0.799043,0.57097 1.779601,1.61273 1.845663,3.19836 -0.04724,0.74328 -0.342065,1.41312 -0.793442,1.91986 -0.605036,0.69618 -1.340252,1.19869 -2.09589,1.58597 -1.596284,0.81535 -3.485803,1.00841 -5.339269,0.63142 0,0 -3e-6,0 -3e-6,0 -1.805132,-0.355 -3.419753,-1.01508 -5.107078,-1.7115 -1.532423,-0.61809 -3.12068,-1.29749 -4.662675,-1.58525 -1.336329,-0.23891 -2.767817,-0.21267 -3.871711,0.38432 -1.12683,0.56883 -2.257408,1.16909 -3.388475,1.80224 -5.296314,2.96477 -9.833461,6.21849 -13.694887,9.52435 0,0 -2e-6,0 -2e-6,0 -3.173491,2.72097 -5.552932,5.21403 -7.461288,7.69075 -3.661621,4.76908 -4.572841,8.47555 -4.908982,8.40347 z"
         style="fill:#000000;stroke:none;stroke-width:0.26458332px;stroke-linecap:butt;stroke-linejoin:miter;stroke-opacity:1" />
      <path
         inkscape:original-d="m -66.712798,516.60416 c 26.113473,-17.45742 27.340468,9.85878 6.236608,20.4107"
         inkscape:path-effect="#path-effect943"
         inkscape:connector-curvature="0"
         id="path941"
         d="m -66.712798,516.60416 c -0.08674,-0.12975 2.496687,-3.17668 8.27788,-5.54201 1e-6,0 2e-6,-10e-6 2e-6,-10e-6 1.821256,-0.75603 4.184774,-1.47618 6.776869,-1.34224 1.632813,0.0792 3.419709,0.64639 4.855074,1.95131 1.229291,1.19049 1.97706,2.77151 2.221148,4.43054 0.05014,0.35222 0.08487,0.70504 0.104735,1.05811 0.228712,4.06424 -1.52153,7.75485 -3.379802,10.41931 -5.699634,8.36665 -12.633161,9.40797 -12.619302,9.43569 -0.242784,-0.48557 6.030533,-3.32679 10.582562,-10.75573 1.517122,-2.54252 3.029336,-5.8024 2.799973,-8.93256 -0.02013,-0.27468 -0.05343,-0.54683 -0.100504,-0.8163 -0.200079,-1.1812 -0.657366,-2.2676 -1.401573,-2.96494 -0.793399,-0.82683 -2.050631,-1.23321 -3.25417,-1.37599 -2.003009,-0.22542 -4.130682,0.30261 -5.878794,0.84091 0,0 -10e-7,10e-6 -10e-7,10e-6 -5.483341,1.72066 -8.750932,3.94268 -8.984097,3.5939 z"
         style="fill:#000000;stroke:none;stroke-width:0.26458332px;stroke-linecap:butt;stroke-linejoin:miter;stroke-opacity:1" />
      <path
         inkscape:original-d="m -56.318451,534.74701 c -5.838611,7.12825 -9.558046,18.37651 -16.252976,23.24555"
         inkscape:path-effect="#path-effect947"
         inkscape:connector-curvature="0"
         id="path945"
         d="m -56.318451,534.74701 c 0.286359,0.23455 -0.493479,1.64748 -1.682067,3.87953 -0.527955,0.99144 -3.461085,6.62126 -4.740987,8.8428 -0.07919,0.13745 -0.158526,0.27417 -0.238071,0.41018 -2.045952,3.56445 -3.861509,6.11931 -5.959274,8.04176 -1.924709,1.76386 -3.433928,2.34443 -3.632581,2.07128 -0.219359,-0.30162 0.871103,-1.38877 2.275543,-3.29875 1.834546,-2.49491 2.73141,-4.2077 5.027825,-8.13935 0.02952,-0.0515 0.201781,-0.35222 0.231302,-0.40373 2.09385,-3.65526 3.636265,-6.25444 5.478556,-8.5538 1.655127,-2.06575 2.961931,-3.07748 3.239754,-2.84992 z"
         style="fill:#000000;stroke:none;stroke-width:0.26458332px;stroke-linecap:butt;stroke-linejoin:miter;stroke-opacity:1" />
      <path
         inkscape:original-d="m -70.870534,556.66965 c -2.064954,13.3976 -8.048921,25.76578 -6.992559,39.4985"
         inkscape:path-effect="#path-effect951"
         inkscape:connector-curvature="0"
         id="path949"
         d="m -70.870534,556.66965 c 0.356896,0.055 0.372459,2.34987 -0.206024,5.99467 -0.66817,4.20988 -1.685067,7.99956 -3.167841,13.9119 1.2e-5,-4e-5 -0.0096,0.0381 -0.0096,0.0381 -1.452869,5.84718 -2.210413,9.69458 -2.718831,13.73837 -0.443961,3.53111 -0.505533,5.78588 -0.890312,5.81548 -0.339984,0.0262 -0.943428,-2.20177 -0.970304,-5.92295 -0.02855,-3.95253 0.581253,-8.58984 2.012731,-14.27306 3e-6,-1e-5 0.0097,-0.0387 0.0097,-0.0387 1.07913,-4.31538 3.21025,-11.32326 3.911461,-13.68189 1.029003,-3.4612 1.664616,-5.6381 2.029007,-5.58194 z"
         style="fill:#000000;stroke:none;stroke-width:0.26458332px;stroke-linecap:butt;stroke-linejoin:miter;stroke-opacity:1" />
      <path
         sodipodi:nodetypes="cccsc"
         inkscape:original-d="m -61.799105,566.87498 c 4.184629,-9.58299 12.315812,-21.57623 17.764879,-31.56099 5.074047,-5.07405 6.139284,-17.76301 11.528275,-21.35566 8.392878,-5.59525 20.078599,3.83117 17.008927,13.04018 -8.331998,24.996 -22.408808,51.97326 -26.080357,77.67409"
         inkscape:path-effect="#path-effect975"
         inkscape:connector-curvature="0"
         id="path973"
         d="m -61.799105,566.87498 c -0.442793,-0.19336 2.189475,-6.3195 7.713334,-16.04302 2.609641,-4.58855 5.88506,-9.95703 9.193434,-16.16019 1.251294,-1.26877 2.141363,-2.94105 3.003802,-4.80572 0.882473,-1.97046 1.575167,-3.98616 2.377381,-6.20081 0.711416,-1.97537 1.488869,-4.10645 2.547601,-6.14702 0.827372,-1.6469 1.981724,-3.3793 3.754273,-4.61489 2.147184,-1.43809 4.809179,-2.12702 7.472577,-1.85077 2.485086,0.27006 4.861411,1.28642 6.842948,2.84064 1.937898,1.50528 3.532811,3.53902 4.449712,5.92628 0.509465,1.33567 0.770107,2.77026 0.756375,4.2148 -0.0109,1.14667 -0.194618,2.28886 -0.55511,3.38231 -4.261913,12.75642 -11.190182,28.93867 -14.987772,38.55922 -4.831402,12.25676 -7.488943,20.08232 -9.583084,27.85118 -1.847071,6.85228 -2.527232,10.87941 -2.763748,10.84562 -0.192881,-0.0276 6.33e-4,-4.13331 1.488852,-11.15219 1.634374,-7.70819 4.207029,-16.18816 8.749338,-28.35374 4.241342,-11.37572 9.849759,-24.33865 14.587922,-38.58625 0.276081,-0.81627 0.414638,-1.68697 0.420757,-2.56833 0.0077,-1.11026 -0.19479,-2.22436 -0.584249,-3.25339 -0.708242,-1.8878 -2.016388,-3.54829 -3.597545,-4.79827 -1.628606,-1.27235 -3.553344,-2.12308 -5.502767,-2.33231 -2.035016,-0.23156 -4.13672,0.29128 -5.787548,1.3852 -1.246734,0.77736 -2.152153,2.19815 -2.968199,3.66297 -0.985961,1.83095 -1.75024,3.86014 -2.49441,5.81973 -0.823474,2.18017 -1.575961,4.2471 -2.546527,6.32146 -0.847531,1.86778 -1.873586,3.66539 -3.364356,5.13872 -3.047857,5.4587 -7.16593,11.91443 -9.519774,15.70213 -5.876618,9.4525 -8.824262,15.33845 -9.103217,15.21664 z"
         style="fill:#000000;stroke:none;stroke-width:0.26458332px;stroke-linecap:butt;stroke-linejoin:miter;stroke-opacity:1" />
      <path
         inkscape:original-d="m -86.556547,602.02677 c 17.633629,-5.77683 18.423297,-49.40702 40.254464,-41.01042"
         inkscape:path-effect="#path-effect979"
         inkscape:connector-curvature="0"
         id="path977"
         d="m -86.556547,602.02677 c -0.09895,-0.30204 2.45123,-1.23779 5.308447,-4.36135 1.508553,-1.65313 2.869845,-3.60787 4.385113,-6.25009 -10e-7,0 10e-7,-1e-5 10e-7,-1e-5 2.697946,-4.71437 4.141233,-8.38164 7.056625,-14.51049 0.203567,-0.42795 0.407874,-0.85274 0.61381,-1.27496 1.314614,-2.70191 2.624773,-5.18208 4.148405,-7.52192 1.499237,-2.31416 3.105118,-4.28648 4.995012,-5.86712 2.039441,-1.71067 4.255072,-2.65427 6.315475,-2.95169 5.263028,-0.70349 7.361029,1.91065 7.43158,1.72721 -0.117195,0.30471 -2.999867,-1.07759 -7.117152,-0.0438 -1.707703,0.40671 -3.480075,1.3594 -5.17591,2.92575 -1.599421,1.48064 -2.949695,3.31947 -4.326973,5.55219 -1.388903,2.26414 -2.597311,4.65348 -3.892119,7.33271 -0.200549,0.41603 -0.40061,0.83487 -0.601444,1.25784 -2.741721,5.77425 -4.65425,10.07919 -7.516552,14.54571 0,0 -10e-7,0 -10e-7,0 -1.695374,2.65078 -3.361233,4.67835 -5.138673,6.27112 -3.564187,3.20333 -6.421895,3.36352 -6.485644,3.16893 z"
         style="fill:#000000;stroke:none;stroke-width:0.26458332px;stroke-linecap:butt;stroke-linejoin:miter;stroke-opacity:1" />
      <path
         inkscape:original-d="m -29.860118,512.06844 c -10.113002,12.90733 7.028897,18.32356 13.418154,7.37055"
         inkscape:path-effect="#path-effect983"
         inkscape:connector-curvature="0"
         id="path981"
         d="m -29.860118,512.06844 c 0.229428,0.17976 -0.187624,1.0197 -0.812067,2.4556 -0.567277,1.30445 -1.506554,3.51574 -1.058461,5.52309 0.212989,1.36664 1.33285,2.77436 2.901878,3.43385 0.02583,0.0112 0.05176,0.0223 0.0778,0.0331 1.839133,0.76783 3.986925,0.58999 5.699917,0.0933 4.204428,-1.2305 6.161838,-4.42934 6.609094,-4.16844 -0.01573,-0.009 -0.196896,4.12657 -5.819301,6.40005 -2.075261,0.84499 -4.81275,1.17236 -7.477031,0.12733 -0.03733,-0.0146 -0.07457,-0.0295 -0.111714,-0.0447 -2.474804,-1.03251 -4.005658,-3.26716 -4.276233,-5.55757 -0.213951,-3.03449 1.206855,-5.38246 2.183827,-6.61254 1.054932,-1.32825 1.900785,-1.82538 2.082296,-1.68316 z"
         style="fill:#000000;stroke:none;stroke-width:0.26458332px;stroke-linecap:butt;stroke-linejoin:miter;stroke-opacity:1" />
      <path
         inkscape:original-d="m -29.666917,606.0972 c 0.680927,-2.44528 1.119929,-5.31347 2.27179,-7.61717 4.278516,-8.55705 9.19685,-19.51069 20.5797541,-19.51069 2.978301,0 12.4474699,1.2586 11.4925897,5.07812 -1.0092314,4.03693 -7.461152,12.21348 -9.7553377,15.36801"
         inkscape:path-effect="#path-effect987"
         inkscape:connector-curvature="0"
         id="path985"
         d="m -29.666917,606.0972 c 0.285564,0.0795 -0.594595,-3.18135 1.521018,-7.99256 0,0 0,0 0,0 1.378446,-3.11852 3.84425,-8.96432 7.423224,-13.38673 1.529634,-1.88806 3.466216,-3.72189 5.8636,-5.05447 1.474289,-0.80908 3.092821,-1.38838 4.792441,-1.71215 1.0835443,-0.20641 2.1743292,-0.30401 3.2512611,-0.30001 2.6781355,0.008 5.2483436,0.47525 7.58707296,1.21463 1.26801354,0.37619 2.56398974,0.91257 3.69981814,1.83846 1.0399933,0.81504 1.6017449,2.17719 1.3327267,3.62485 -0.4231502,1.52019 -1.1662865,2.82417 -1.8275347,3.9033 -0.9755981,1.61897 -2.0377426,3.10246 -2.9630797,4.33388 0,0 -1.2e-6,0 -1.2e-6,0 -3.4205044,4.55457 -5.9141148,6.97826 -6.0917521,6.84907 -0.3764961,-0.27381 1.6374648,-3.09579 4.62730302,-7.85714 -5e-8,0 9.6e-7,0 9.6e-7,0 0.80036835,-1.27461 1.74491372,-2.80451 2.57369992,-4.37448 0.5695146,-1.09649 1.1833686,-2.2711 1.4273077,-3.41815 0.1655566,-0.2904 -0.1878899,-0.79782 -0.6153804,-1.18478 -0.7248162,-0.59781 -1.7349128,-0.93691 -2.89477592,-1.29467 -2.14960208,-0.61746 -4.47762998,-1.0071 -6.85540538,-0.99885 -0.9150037,0.004 -1.8409628,0.0898 -2.7576364,0.26322 -1.4378277,0.27205 -2.8011407,0.74984 -4.0308277,1.41504 -2.032767,1.08291 -3.765428,2.67978 -5.212279,4.34801 -3.287581,3.78728 -6.221658,9.67499 -7.828239,12.54175 0,0 -10e-7,0 -10e-7,0 -2.307219,4.02668 -2.715662,7.32724 -3.022561,7.24178 z"
         style="fill:#000000;stroke:none;stroke-width:0.26458332px;stroke-linecap:butt;stroke-linejoin:miter;stroke-opacity:1" />
      <path
         inkscape:original-d="m -1.2027129,579.50388 c -13.6126921,13.0756 0.68663552,17.54748 -2.0045215,31.00326"
         inkscape:path-effect="#path-effect991"
         inkscape:connector-curvature="0"
         id="path989"
         d="m -1.2027129,579.50388 c 0.20525942,0.21369 -0.4284165,1.0965 -1.463612,2.58827 -0.9494772,1.36824 -2.5407173,3.65477 -3.0290769,6.17565 3e-7,0 -3e-7,0 -3e-7,0 -0.3838804,1.69603 -0.1496236,3.59307 0.4861612,5.6675 0.050849,0.16591 0.1036335,0.33089 0.1579871,0.49467 0.8334742,2.42955 1.9100354,4.79095 2.4929617,7.06296 1.4365499,5.63174 -0.3249733,9.07901 -0.6489435,9.01422 -0.4922414,-0.0985 0.035481,-3.69839 -1.5804341,-8.35012 -0.6879687,-1.99432 -1.8347164,-4.20971 -2.7621751,-6.86111 -0.067058,-0.18654 -0.1313497,-0.37584 -0.192492,-0.56771 -0.7632243,-2.39498 -0.9188883,-4.81995 -0.322921,-7.05163 0,0 7e-7,-10e-6 7e-7,-10e-6 0.9315985,-3.15699 2.946056,-5.37604 4.2762944,-6.57797 1.4157071,-1.27916 2.4163854,-1.77156 2.5862498,-1.59472 z"
         style="fill:#000000;stroke:none;stroke-width:0.26458332px;stroke-linecap:butt;stroke-linejoin:miter;stroke-opacity:1" />
    </g>
  </g>
</svg>
